HIERARCHY
ROOT Hips
{
	OFFSET -3.958830 18.904000 13.208200
	CHANNELS 6 Xposition Yposition Zposition Zrotation Yrotation Xrotation 
	JOINT LHipJoint
	{
		OFFSET 0.000000 0.000000 0.000000
		CHANNELS 3 Zrotation Yrotation Xrotation
		JOINT LeftUpLeg
		{
			OFFSET 1.800000 -1.400000 0.085000
			CHANNELS 3 Zrotation Yrotation Xrotation
			JOINT LeftLeg
			{
				OFFSET 2.215000 -6.000000 0.000000
				CHANNELS 3 Zrotation Yrotation Xrotation
				JOINT LeftFoot
				{
					OFFSET 2.500000 -6.900000 0.000000
					CHANNELS 3 Zrotation Yrotation Xrotation
					JOINT LeftToeBase
					{
						OFFSET 0.200000 -0.500000 1.950000
						CHANNELS 3 Zrotation Yrotation Xrotation
						End Site
						{
							OFFSET 0.000000 0.000000 0.000000
						}
					}
				}
			}
		}
	}
	JOINT RHipJoint
	{
		OFFSET 0.000000 0.000000 0.000000
		CHANNELS 3 Zrotation Yrotation Xrotation
		JOINT RightUpLeg
		{
			OFFSET -1.800000 -1.400000 0.085000
			CHANNELS 3 Zrotation Yrotation Xrotation
			JOINT RightLeg
			{
				OFFSET -2.215000 -6.000000 0.000000
				CHANNELS 3 Zrotation Yrotation Xrotation
				JOINT RightFoot
				{
					OFFSET -2.500000 -6.900000 0.000000
					CHANNELS 3 Zrotation Yrotation Xrotation
					JOINT RightToeBase
					{
						OFFSET -0.200000 -0.500000 1.950000
						CHANNELS 3 Zrotation Yrotation Xrotation
						End Site
						{
							OFFSET 0.000000 0.000000 0.000000
						}
					}
				}
			}
		}
	}
	JOINT LowerBack
	{
		OFFSET 0.000000 0.000000 0.000000
		CHANNELS 3 Zrotation Yrotation Xrotation
		JOINT Spine
		{
			OFFSET -0.087000 1.940000 -0.288900
			CHANNELS 3 Zrotation Yrotation Xrotation
			JOINT Spine1
			{
				OFFSET 0.000000 1.950000 0.060000
				CHANNELS 3 Zrotation Yrotation Xrotation
				JOINT Neck
				{
					OFFSET 0.000000 0.000000 0.000000
					CHANNELS 3 Zrotation Yrotation Xrotation
					JOINT Neck1
					{
						OFFSET 0.000000 1.600000 0.340000
						CHANNELS 3 Zrotation Yrotation Xrotation
						JOINT Head
						{
							OFFSET 0.000000 1.667000 -0.240000
							CHANNELS 3 Zrotation Yrotation Xrotation
							End Site
							{
								OFFSET 0.000000 0.000000 0.000000
							}
						}
					}
				}
				JOINT LeftShoulder
				{
					OFFSET 0.000000 0.000000 0.000000
					CHANNELS 3 Zrotation Yrotation Xrotation
					JOINT LeftArm
					{
						OFFSET 2.700000 1.550000 -0.730000
						CHANNELS 3 Zrotation Yrotation Xrotation
						JOINT LeftForeArm
						{
							OFFSET 5.450000 0.000000 0.000000
							CHANNELS 3 Zrotation Yrotation Xrotation
							JOINT LeftHand
							{
								OFFSET 3.450000 0.000000 0.000000
								CHANNELS 3 Zrotation Yrotation Xrotation
								JOINT LeftHandIndex1
								{
									OFFSET 0.750000 0.000000 0.000000
									CHANNELS 3 Zrotation Yrotation Xrotation
									End Site
									{
										OFFSET 0.000000 0.000000 0.000000
									}
								}
							}
						}
					}
				}
				JOINT RightShoulder
				{
					OFFSET 0.000000 0.000000 0.000000
					CHANNELS 3 Zrotation Yrotation Xrotation
					JOINT RightArm
					{
						OFFSET -2.700000 1.550000 -0.730000
						CHANNELS 3 Zrotation Yrotation Xrotation
						JOINT RightForeArm
						{
							OFFSET -5.450000 0.000000 0.000000
							CHANNELS 3 Zrotation Yrotation Xrotation
							JOINT RightHand
							{
								OFFSET -3.450000 0.000000 0.000000
								CHANNELS 3 Zrotation Yrotation Xrotation
								JOINT RightHandIndex1
								{
									OFFSET -0.750000 0.000000 0.000000
									CHANNELS 3 Zrotation Yrotation Xrotation
									End Site
									{
										OFFSET 0.000000 0.000000 0.000000
									}
								}
							}
						}
					}
				}
			}
		}
	}
}
MOTION
Frames: 6
Frame Time: 0.016667
-1.058250 17.763770 3.340780 -7.534149 -12.936779 3.335061 -15.552031 11.607999 5.157478 31.327774 0.129085 -28.346631 -22.447619 14.390521 22.523980 0.201806 8.626406 1.292274 -0.343240 -0.444540 -0.384560 18.311017 -8.600263 3.539180 -0.239851 11.996290 -33.660305 -7.993363 -3.524438 53.983484 -0.919246 -6.994663 1.919753 -0.347250 0.418170 0.074060 -3.138309 -2.788247 -9.423590 2.887531 -1.291448 33.208737 -2.107856 0.966422 -4.621156 0.715614 -5.914419 -11.406553 -15.826175 9.556030 43.624449 4.285360 3.488790 -9.697110 -13.072953 -2.258219 3.991964 -43.631808 7.776548 -11.343821 -24.030873 -27.816129 2.124757 -3.689714 2.763890 0.649460 -0.015910 0.045150 0.006450 12.316114 8.048189 6.075743 60.236677 -3.673352 -18.125352 21.625052 32.970470 2.159150 2.313721 -0.856479 -0.327030 0.386870 0.464470 0.002920 
-1.062960 17.810210 3.333020 -8.044044 -12.988404 3.282115 -15.517852 11.740446 4.911588 30.322629 0.177725 -28.446616 -20.056935 13.854903 23.245894 0.131261 8.309807 1.387383 -0.356490 -0.461000 -0.394110 18.324338 -8.619554 3.700087 0.841167 12.476395 -33.838231 -8.945137 -3.021333 55.190462 -0.972389 -7.183681 1.863525 -0.361580 0.408900 0.070350 -3.187272 -2.803809 -9.385581 2.835039 -1.370270 33.677138 -2.385393 0.859292 -4.964257 0.796019 -6.073358 -11.703329 -16.265078 9.778304 43.710700 4.236060 3.543660 -9.316820 -12.511781 -2.270727 4.240167 -43.690473 8.699814 -11.810370 -26.230812 -28.068462 2.493362 -3.674477 2.785577 0.653520 -0.023540 0.045190 -0.001360 11.653952 8.153622 6.262704 61.480163 -4.071994 -18.672421 22.819638 32.675213 2.253530 2.326133 -0.860009 -0.325390 0.375270 0.470960 0.001330 
-1.072230 17.895810 3.308070 -8.958534 -13.043906 2.983533 -15.452748 11.981944 4.420138 28.405068 0.286792 -28.416555 -15.678743 12.711640 24.316773 0.020620 7.671564 1.599237 -0.357670 -0.466800 -0.399250 18.356532 -8.625651 4.038503 2.586058 13.571520 -34.403129 -10.176554 -2.444162 58.380293 -1.127689 -7.711272 1.711443 -0.380520 0.395830 0.067310 -3.294085 -2.840982 -9.316384 2.699876 -1.601590 34.957975 -2.793980 0.543084 -5.807456 0.819598 -6.574156 -12.228345 -17.584051 10.544204 43.851267 4.821180 3.554550 -9.232680 -11.562916 -2.235224 4.718026 -44.011310 10.523845 -12.818451 -30.226295 -28.926609 3.245746 -3.632505 2.823055 0.668820 -0.045350 0.058490 0.001700 10.789795 8.404042 6.510743 63.353853 -4.660476 -19.457933 24.740390 31.714943 2.349470 2.350734 -0.858927 -0.314930 0.367060 0.465730 0.006200 
-1.086140 17.989820 3.276240 -9.963681 -12.761993 2.570577 -15.371279 12.246191 3.782569 25.903913 0.447612 -28.311233 -10.300859 11.081938 25.174525 -0.104172 6.815313 1.898979 -0.365270 -0.472850 -0.416450 18.412551 -8.599892 4.498656 4.161819 15.181327 -35.618567 -10.743980 -2.464136 63.908024 -1.382207 -8.645229 1.432109 -0.396750 0.385050 0.053540 -3.457966 -2.860543 -9.231514 2.652715 -1.978847 36.719271 -3.396901 0.018598 -6.936497 0.764553 -7.429488 -12.733217 -19.780532 11.475726 43.425167 6.002820 3.106370 -9.798530 -10.240851 -1.760762 5.135645 -44.594673 12.459993 -13.955176 -35.458571 -29.892241 4.318932 -3.577652 2.863290 0.688930 -0.080520 0.072900 0.003940 9.737345 8.378550 6.692601 65.523593 -5.438276 -20.434001 26.900850 30.552244 2.436326 2.383405 -0.848847 -0.310770 0.371720 0.465320 0.018520 
-1.111030 18.083010 3.244230 -10.707641 -12.090330 2.001970 -15.298031 12.483227 3.128873 22.995419 0.538354 -28.015441 -5.053937 9.209869 25.205899 -0.203358 5.879887 2.248983 -0.365220 -0.482220 -0.427350 18.473023 -8.538483 5.003020 5.189373 17.081332 -37.400182 -10.371947 -3.463423 71.382037 -1.721503 -9.911603 1.065518 -0.415310 0.376400 0.044730 -3.619509 -2.877289 -9.157864 2.176248 -2.249717 38.906312 -3.729834 -0.669764 -8.739522 0.617138 -8.309782 -13.175303 -22.175210 12.508395 42.762854 7.456500 2.462150 -10.215240 -8.883426 -0.897216 5.521669 -45.014757 14.736962 -14.939140 -41.981910 -30.506669 5.702595 -3.517030 2.921866 0.709570 -0.119250 0.085650 0.013100 8.909025 7.917974 6.751329 67.612139 -6.606920 -21.426143 28.487568 29.389719 2.461337 2.416629 -0.839021 -0.303950 0.372110 0.459180 0.032160 
-1.130180 18.157390 3.226200 -11.901954 -11.280393 1.811393 -15.240183 12.601729 2.555544 20.648787 0.748207 -27.494168 -0.348704 7.388917 24.031306 -0.272715 5.009412 2.596303 -0.380530 -0.485820 -0.473680 18.552493 -8.380030 5.521965 6.127617 19.297251 -39.678057 -9.139717 -5.779831 79.729710 -2.098845 -11.347317 0.696407 -0.424620 0.394560 0.013280 -3.805713 -2.874863 -9.130961 2.730646 -2.894467 40.678832 -4.366282 -1.423655 -10.519206 0.613078 -9.210930 -13.483531 -24.568203 13.596232 41.548766 8.847720 1.742730 -10.304030 -7.850997 0.285111 5.734776 -45.862722 16.875176 -15.807326 -47.579831 -30.629795 6.841562 -3.469578 2.948275 0.711350 -0.140850 0.077820 0.034380 8.071841 7.105656 6.730247 69.137016 -7.909431 -22.187482 30.122815 28.114675 2.495473 2.438501 -0.821574 -0.310720 0.398590 0.458320 0.058820 
